# xmcd
#
# Track frame offsets: 
#        150
#        7667
#        27249
#        42397
#        50547
#        66646
#        79280
#        92813
#        106061
#        120794
#        134076
#        150917
#        164674
#        181854
#        192623
#        205853
#
# Disc length: 2972 seconds
#
# Revision: 2
# Processed by: cddbd v1.5.2PL0 Copyright (c) Steve Scherf et al.
# Submitted via: ExactAudioCopyFreeDBPlugin 1.0
#
DISCID=d40b9a10
DTITLE=Mark Lanegan - Live At Leeds (Brudenell Social Club, April 24)
DYEAR=2010
DGENRE=live
TTITLE0=Field Song
TTITLE1=One Way Street
TTITLE2=No Easy Action
TTITLE3=Miracle
TTITLE4=The River Rise
TTITLE5=Like Little Willie John
TTITLE6=Don't Forget Me
TTITLE7=Can't Catch the Train
TTITLE8=Message to Mine
TTITLE9=Mirrored
TTITLE10=Resurrection Song
TTITLE11=Julia Dream
TTITLE12=One Hundred Days
TTITLE13=On Jesus Program
TTITLE14=When Your Number Isn't Up
TTITLE15=Hangin' Tree
EXTD=
EXTT0=
EXTT1=
EXTT2=
EXTT3=
EXTT4=
EXTT5=
EXTT6=
EXTT7=
EXTT8=
EXTT9=
EXTT10=
EXTT11=
EXTT12=
EXTT13=
EXTT14=
EXTT15=
PLAYORDER=
